<svg width="211" height="60" viewBox="0 0 211 60" fill="none" xmlns="http://www.w3.org/2000/svg">
<g clip-path="url(#clip0_1_2)">
<path d="M60.1979 55H4.96667C3.65248 54.9913 2.39457 54.4655 1.46508 53.5364C0.535598 52.6073 0.00928004 51.3496 0 50.0354L0 19.0396C0.00872867 17.7254 0.534519 16.4675 1.46361 15.538C2.39271 14.6085 3.6504 14.0822 4.96458 14.0729H60.1979C61.5121 14.0816 62.77 14.6074 63.6995 15.5365C64.629 16.4656 65.1553 17.7233 65.1646 19.0375V50.0396C65.1646 50.691 65.0363 51.336 64.787 51.9379C64.5377 52.5397 64.1723 53.0865 63.7117 53.5471C63.2511 54.0077 62.7043 54.3731 62.1024 54.6224C61.5006 54.8717 60.8556 55 60.2042 55H60.1979ZM4.96667 17.3854H4.95208C4.51724 17.3854 4.1002 17.5582 3.79272 17.8656C3.48524 18.1731 3.3125 18.5902 3.3125 19.025V50.0563C3.3125 50.9625 4.04583 51.6958 4.95208 51.6958H60.2146C60.6494 51.6958 61.0665 51.5231 61.3739 51.2156C61.6814 50.9081 61.8542 50.4911 61.8542 50.0563V19.025C61.8542 18.5902 61.6814 18.1731 61.3739 17.8656C61.0665 17.5582 60.6494 17.3854 60.2146 17.3854H60.1979H4.96667ZM47.2188 8.97292V8.98125C47.2188 9.45311 47.0313 9.90565 46.6976 10.2393C46.364 10.573 45.9114 10.7604 45.4396 10.7604H19.7292C19.2573 10.7604 18.8048 10.573 18.4711 10.2393C18.1374 9.90565 17.95 9.45311 17.95 8.98125V8.96458C17.95 7.98125 18.7479 7.18542 19.7292 7.18542H45.4312C45.8984 7.20578 46.341 7.40036 46.6719 7.73083C47.0027 8.06129 47.1978 8.50576 47.2188 8.97292ZM53.4437 10.2979V10.3271C53.4437 11.8104 52.2417 13.0125 50.7583 13.0125H50.7271H50.7C50.3473 13.0125 49.9981 12.943 49.6723 12.8081C49.3465 12.6731 49.0505 12.4753 48.8011 12.226C48.5518 11.9766 48.354 11.6806 48.219 11.3547C48.084 11.0289 48.0146 10.6797 48.0146 10.3271V10.2958V7.68542C48.0146 6.20208 49.2167 5 50.7 5H50.7312H50.7583C52.2417 5 53.4437 6.20208 53.4437 7.68542V7.71667V7.71458V10.2979ZM17.1521 10.2979V10.3271C17.1521 11.8104 15.95 13.0125 14.4667 13.0125H14.4354H14.4083C13.6961 13.0125 13.0131 12.7296 12.5095 12.226C12.0058 11.7223 11.7229 11.0393 11.7229 10.3271V10.2958V7.68542C11.7229 6.20208 12.925 5 14.4083 5H14.4396H14.4375H14.4667C15.95 5 17.1521 6.20208 17.1521 7.68542V7.71667V7.71458V10.2979ZM62.1208 8.97292V8.98125C62.1208 9.45311 61.9334 9.90565 61.5997 10.2393C61.2661 10.573 60.8135 10.7604 60.3417 10.7604H55.8896C55.4177 10.7604 54.9652 10.573 54.6315 10.2393C54.2979 9.90565 54.1104 9.45311 54.1104 8.98125V8.96458C54.1104 7.98125 54.9083 7.18542 55.8896 7.18542H60.3333C60.8005 7.20578 61.2431 7.40036 61.574 7.73083C61.9048 8.06129 62.0999 8.50576 62.1208 8.97292ZM10.9937 8.97292V8.98125C10.9937 9.45311 10.8063 9.90565 10.4726 10.2393C10.139 10.573 9.68645 10.7604 9.21458 10.7604H4.82708C4.35522 10.7604 3.90268 10.573 3.56902 10.2393C3.23536 9.90565 3.04792 9.45311 3.04792 8.98125V8.96458C3.04792 7.98125 3.84583 7.18542 4.82708 7.18542H9.27083C9.73136 7.2082 10.1658 7.40584 10.4856 7.73802C10.8054 8.07019 10.9885 8.51186 10.9937 8.97292Z" fill="#31B675"/>
<path d="M11.7875 35.3292V39.4958H15.8271V35.3292H18.2771V46.1917H15.8271V41.6208H11.7875V46.1917H9.33749V35.3292H11.7875ZM30.3979 40.6312C30.4735 41.3591 30.3953 42.0947 30.1685 42.7904C29.9417 43.4861 29.5713 44.1264 29.0813 44.6698C28.5913 45.2132 27.9926 45.6477 27.324 45.945C26.6553 46.2424 25.9317 46.3959 25.2 46.3958L25.0229 46.3937H25.0312H24.9708C24.2617 46.394 23.5605 46.2454 22.9125 45.9573C22.2645 45.6693 21.6843 45.2484 21.2094 44.7218C20.7345 44.1953 20.3755 43.5748 20.1556 42.9006C19.9358 42.2265 19.8601 41.5136 19.9333 40.8083L19.9312 40.8292C19.8701 40.1043 19.9601 39.3746 20.1956 38.6862C20.431 37.9979 20.8068 37.366 21.2991 36.8304C21.7914 36.2948 22.3895 35.8673 23.0556 35.5748C23.7217 35.2823 24.4413 35.1313 25.1687 35.1312H25.2333H25.2292L25.3562 35.1292C26.0595 35.1291 26.755 35.2757 27.3983 35.5596C28.0416 35.8435 28.6187 36.2585 29.0926 36.7781C29.5664 37.2977 29.9267 37.9104 30.1504 38.5771C30.3741 39.2437 30.4563 39.9498 30.3917 40.65L30.3937 40.6312H30.3979ZM22.5833 40.7625C22.5833 42.8833 23.5833 44.4042 25.2312 44.4042C26.8792 44.4042 27.8146 42.8146 27.8146 40.6958C27.8146 38.7083 26.8875 37.0542 25.1667 37.0542C23.5125 37.05 22.5833 38.6417 22.5833 40.7583V40.7625ZM33.7083 37.3833H30.7958V35.3292H39.1417V37.3833H36.1625V46.1917H33.7125L33.7083 37.3833ZM46.8875 41.5542H42.9146V44.1375H47.4146V46.125H40.3979V35.3292H47.0854V37.3167H42.8479V39.5687H46.8208V41.5562L46.8875 41.5542ZM49.0729 35.3292H51.5229V44.1375H55.8271V46.1917H49.0729V35.3292ZM32.5833 28.3792L29.0062 30.3062L29.6729 26.3333L26.8208 23.4729L30.7937 22.8771L32.5812 19.3062L34.3687 22.8833L38.3417 23.4792L35.4937 26.3271L36.1604 30.3L32.5833 28.3792ZM44.9667 28.8396L42.2521 30.2958L42.7812 27.25L40.5937 25.1312L43.5729 24.7354L44.9625 21.9542L46.2875 24.7354L49.3333 25.1312L47.1479 27.2521L47.6104 30.2979L44.9667 28.8396ZM52.8458 29.3708L51.0583 30.2979L51.3917 28.3104L49.9354 26.9208L51.9229 26.5875L52.85 24.8L53.7125 26.5875L55.7 26.9208L54.3104 28.3104L54.6437 30.2979L52.8458 29.3708ZM20.2646 28.8396L22.9125 30.2958L22.3833 27.25L24.5687 25.1292L21.5896 24.7333L20.2667 21.9542L18.8771 24.7354L15.8958 25.1312L18.0812 27.2521L17.5521 30.2979L20.2646 28.8396ZM12.3187 29.3708L14.1062 30.2979L13.7729 28.3104L15.2292 26.9208L13.2417 26.5875L12.3167 24.8L11.4542 26.5875L9.46666 26.9208L10.9229 28.3104L10.5896 30.2979L12.3187 29.3708Z" fill="#31B675"/>
<path d="M82.98 19.52H77.74L76.9 22H73.32L78.4 7.96H82.36L87.44 22H83.82L82.98 19.52ZM82.1 16.88L80.36 11.74L78.64 16.88H82.1ZM92.4061 12.42C92.7394 11.9 93.1994 11.48 93.7861 11.16C94.3728 10.84 95.0594 10.68 95.8461 10.68C96.7661 10.68 97.5994 10.9133 98.3461 11.38C99.0928 11.8467 99.6794 12.5133 100.106 13.38C100.546 14.2467 100.766 15.2533 100.766 16.4C100.766 17.5467 100.546 18.56 100.106 19.44C99.6794 20.3067 99.0928 20.98 98.3461 21.46C97.5994 21.9267 96.7661 22.16 95.8461 22.16C95.0728 22.16 94.3861 22 93.7861 21.68C93.1994 21.36 92.7394 20.9467 92.4061 20.44V27.32H88.9861V10.84H92.4061V12.42ZM97.2861 16.4C97.2861 15.5467 97.0461 14.88 96.5661 14.4C96.0994 13.9067 95.5194 13.66 94.8261 13.66C94.1461 13.66 93.5661 13.9067 93.0861 14.4C92.6194 14.8933 92.3861 15.5667 92.3861 16.42C92.3861 17.2733 92.6194 17.9467 93.0861 18.44C93.5661 18.9333 94.1461 19.18 94.8261 19.18C95.5061 19.18 96.0861 18.9333 96.5661 18.44C97.0461 17.9333 97.2861 17.2533 97.2861 16.4ZM101.88 16.4C101.88 15.2533 102.094 14.2467 102.52 13.38C102.96 12.5133 103.554 11.8467 104.3 11.38C105.047 10.9133 105.88 10.68 106.8 10.68C107.587 10.68 108.274 10.84 108.86 11.16C109.46 11.48 109.92 11.9 110.24 12.42V10.84H113.66V22H110.24V20.42C109.907 20.94 109.44 21.36 108.84 21.68C108.254 22 107.567 22.16 106.78 22.16C105.874 22.16 105.047 21.9267 104.3 21.46C103.554 20.98 102.96 20.3067 102.52 19.44C102.094 18.56 101.88 17.5467 101.88 16.4ZM110.24 16.42C110.24 15.5667 110 14.8933 109.52 14.4C109.054 13.9067 108.48 13.66 107.8 13.66C107.12 13.66 106.54 13.9067 106.06 14.4C105.594 14.88 105.36 15.5467 105.36 16.4C105.36 17.2533 105.594 17.9333 106.06 18.44C106.54 18.9333 107.12 19.18 107.8 19.18C108.48 19.18 109.054 18.9333 109.52 18.44C110 17.9467 110.24 17.2733 110.24 16.42ZM119.555 12.7C119.955 12.0867 120.455 11.6067 121.055 11.26C121.655 10.9 122.321 10.72 123.055 10.72V14.34H122.115C121.261 14.34 120.621 14.5267 120.195 14.9C119.768 15.26 119.555 15.9 119.555 16.82V22H116.135V10.84H119.555V12.7ZM130.909 19.1V22H129.169C127.929 22 126.963 21.7 126.269 21.1C125.576 20.4867 125.229 19.4933 125.229 18.12V13.68H123.869V10.84H125.229V8.12H128.649V10.84H130.889V13.68H128.649V18.16C128.649 18.4933 128.729 18.7333 128.889 18.88C129.049 19.0267 129.316 19.1 129.689 19.1H130.909ZM149.213 7.96V22H145.793V16.22H140.473V22H137.053V7.96H140.473V13.46H145.793V7.96H149.213ZM156.761 22.16C155.668 22.16 154.681 21.9267 153.801 21.46C152.935 20.9933 152.248 20.3267 151.741 19.46C151.248 18.5933 151.001 17.58 151.001 16.42C151.001 15.2733 151.255 14.2667 151.761 13.4C152.268 12.52 152.961 11.8467 153.841 11.38C154.721 10.9133 155.708 10.68 156.801 10.68C157.895 10.68 158.881 10.9133 159.761 11.38C160.641 11.8467 161.335 12.52 161.841 13.4C162.348 14.2667 162.601 15.2733 162.601 16.42C162.601 17.5667 162.341 18.58 161.821 19.46C161.315 20.3267 160.615 20.9933 159.721 21.46C158.841 21.9267 157.855 22.16 156.761 22.16ZM156.761 19.2C157.415 19.2 157.968 18.96 158.421 18.48C158.888 18 159.121 17.3133 159.121 16.42C159.121 15.5267 158.895 14.84 158.441 14.36C158.001 13.88 157.455 13.64 156.801 13.64C156.135 13.64 155.581 13.88 155.141 14.36C154.701 14.8267 154.481 15.5133 154.481 16.42C154.481 17.3133 154.695 18 155.121 18.48C155.561 18.96 156.108 19.2 156.761 19.2ZM170.636 19.1V22H168.896C167.656 22 166.689 21.7 165.996 21.1C165.302 20.4867 164.956 19.4933 164.956 18.12V13.68H163.596V10.84H164.956V8.12H168.376V10.84H170.616V13.68H168.376V18.16C168.376 18.4933 168.456 18.7333 168.616 18.88C168.776 19.0267 169.042 19.1 169.416 19.1H170.636ZM183.061 16.24C183.061 16.56 183.041 16.8933 183.001 17.24H175.261C175.314 17.9333 175.534 18.4667 175.921 18.84C176.321 19.2 176.807 19.38 177.381 19.38C178.234 19.38 178.827 19.02 179.161 18.3H182.801C182.614 19.0333 182.274 19.6933 181.781 20.28C181.301 20.8667 180.694 21.3267 179.961 21.66C179.227 21.9933 178.407 22.16 177.501 22.16C176.407 22.16 175.434 21.9267 174.581 21.46C173.727 20.9933 173.061 20.3267 172.581 19.46C172.101 18.5933 171.861 17.58 171.861 16.42C171.861 15.26 172.094 14.2467 172.561 13.38C173.041 12.5133 173.707 11.8467 174.561 11.38C175.414 10.9133 176.394 10.68 177.501 10.68C178.581 10.68 179.541 10.9067 180.381 11.36C181.221 11.8133 181.874 12.46 182.341 13.3C182.821 14.14 183.061 15.12 183.061 16.24ZM179.561 15.34C179.561 14.7533 179.361 14.2867 178.961 13.94C178.561 13.5933 178.061 13.42 177.461 13.42C176.887 13.42 176.401 13.5867 176.001 13.92C175.614 14.2533 175.374 14.7267 175.281 15.34H179.561ZM188.285 7.2V22H184.865V7.2H188.285Z" fill="#31B675"/>
<path d="M73 33H189" stroke="#222222" stroke-width="2" stroke-linecap="round"/>
<path d="M74.33 41.98V49H72.62V41.98H74.33ZM75.2292 46.2C75.2292 45.6267 75.3359 45.1233 75.5492 44.69C75.7692 44.2567 76.0659 43.9233 76.4392 43.69C76.8126 43.4567 77.2292 43.34 77.6892 43.34C78.0559 43.34 78.3892 43.4167 78.6892 43.57C78.9959 43.7233 79.2359 43.93 79.4092 44.19V41.6H81.1192V49H79.4092V48.2C79.2492 48.4667 79.0192 48.68 78.7192 48.84C78.4259 49 78.0826 49.08 77.6892 49.08C77.2292 49.08 76.8126 48.9633 76.4392 48.73C76.0659 48.49 75.7692 48.1533 75.5492 47.72C75.3359 47.28 75.2292 46.7733 75.2292 46.2ZM79.4092 46.21C79.4092 45.7833 79.2892 45.4467 79.0492 45.2C78.8159 44.9533 78.5292 44.83 78.1892 44.83C77.8492 44.83 77.5592 44.9533 77.3192 45.2C77.0859 45.44 76.9692 45.7733 76.9692 46.2C76.9692 46.6267 77.0859 46.9667 77.3192 47.22C77.5592 47.4667 77.8492 47.59 78.1892 47.59C78.5292 47.59 78.8159 47.4667 79.0492 47.22C79.2892 46.9733 79.4092 46.6367 79.4092 46.21ZM87.6163 46.12C87.6163 46.28 87.6063 46.4467 87.5863 46.62H83.7163C83.743 46.9667 83.853 47.2333 84.0463 47.42C84.2463 47.6 84.4897 47.69 84.7763 47.69C85.203 47.69 85.4997 47.51 85.6663 47.15H87.4863C87.393 47.5167 87.223 47.8467 86.9763 48.14C86.7363 48.4333 86.433 48.6633 86.0663 48.83C85.6997 48.9967 85.2897 49.08 84.8363 49.08C84.2897 49.08 83.803 48.9633 83.3763 48.73C82.9497 48.4967 82.6163 48.1633 82.3763 47.73C82.1363 47.2967 82.0163 46.79 82.0163 46.21C82.0163 45.63 82.133 45.1233 82.3663 44.69C82.6063 44.2567 82.9397 43.9233 83.3663 43.69C83.793 43.4567 84.283 43.34 84.8363 43.34C85.3763 43.34 85.8563 43.4533 86.2763 43.68C86.6963 43.9067 87.023 44.23 87.2563 44.65C87.4963 45.07 87.6163 45.56 87.6163 46.12ZM85.8663 45.67C85.8663 45.3767 85.7663 45.1433 85.5663 44.97C85.3663 44.7967 85.1163 44.71 84.8163 44.71C84.5297 44.71 84.2863 44.7933 84.0863 44.96C83.893 45.1267 83.773 45.3633 83.7263 45.67H85.8663ZM88.1784 46.2C88.1784 45.6267 88.2851 45.1233 88.4984 44.69C88.7184 44.2567 89.0151 43.9233 89.3884 43.69C89.7618 43.4567 90.1784 43.34 90.6384 43.34C91.0318 43.34 91.3751 43.42 91.6684 43.58C91.9684 43.74 92.1984 43.95 92.3584 44.21V43.42H94.0684V49H92.3584V48.21C92.1918 48.47 91.9584 48.68 91.6584 48.84C91.3651 49 91.0218 49.08 90.6284 49.08C90.1751 49.08 89.7618 48.9633 89.3884 48.73C89.0151 48.49 88.7184 48.1533 88.4984 47.72C88.2851 47.28 88.1784 46.7733 88.1784 46.2ZM92.3584 46.21C92.3584 45.7833 92.2384 45.4467 91.9984 45.2C91.7651 44.9533 91.4784 44.83 91.1384 44.83C90.7984 44.83 90.5084 44.9533 90.2684 45.2C90.0351 45.44 89.9184 45.7733 89.9184 46.2C89.9184 46.6267 90.0351 46.9667 90.2684 47.22C90.5084 47.4667 90.7984 47.59 91.1384 47.59C91.4784 47.59 91.7651 47.4667 91.9984 47.22C92.2384 46.9733 92.3584 46.6367 92.3584 46.21ZM97.0155 41.6V49H95.3055V41.6H97.0155ZM103.174 44.84H102.254V49H100.544V44.84H99.9239V43.42H100.544V43.26C100.544 42.5733 100.741 42.0533 101.134 41.7C101.527 41.34 102.104 41.16 102.864 41.16C102.991 41.16 103.084 41.1633 103.144 41.17V42.62C102.817 42.6 102.587 42.6467 102.454 42.76C102.321 42.8733 102.254 43.0767 102.254 43.37V43.42H103.174V44.84ZM106.517 49.08C105.971 49.08 105.477 48.9633 105.037 48.73C104.604 48.4967 104.261 48.1633 104.007 47.73C103.761 47.2967 103.637 46.79 103.637 46.21C103.637 45.6367 103.764 45.1333 104.017 44.7C104.271 44.26 104.617 43.9233 105.057 43.69C105.497 43.4567 105.991 43.34 106.537 43.34C107.084 43.34 107.577 43.4567 108.017 43.69C108.457 43.9233 108.804 44.26 109.057 44.7C109.311 45.1333 109.437 45.6367 109.437 46.21C109.437 46.7833 109.307 47.29 109.047 47.73C108.794 48.1633 108.444 48.4967 107.997 48.73C107.557 48.9633 107.064 49.08 106.517 49.08ZM106.517 47.6C106.844 47.6 107.121 47.48 107.347 47.24C107.581 47 107.697 46.6567 107.697 46.21C107.697 45.7633 107.584 45.42 107.357 45.18C107.137 44.94 106.864 44.82 106.537 44.82C106.204 44.82 105.927 44.94 105.707 45.18C105.487 45.4133 105.377 45.7567 105.377 46.21C105.377 46.6567 105.484 47 105.697 47.24C105.917 47.48 106.191 47.6 106.517 47.6ZM112.055 44.35C112.255 44.0433 112.505 43.8033 112.805 43.63C113.105 43.45 113.438 43.36 113.805 43.36V45.17H113.335C112.908 45.17 112.588 45.2633 112.375 45.45C112.161 45.63 112.055 45.95 112.055 46.41V49H110.345V43.42H112.055V44.35ZM118.451 41.6V49H116.741V41.6H118.451ZM124.95 46.12C124.95 46.28 124.94 46.4467 124.92 46.62H121.05C121.077 46.9667 121.187 47.2333 121.38 47.42C121.58 47.6 121.824 47.69 122.11 47.69C122.537 47.69 122.834 47.51 123 47.15H124.82C124.727 47.5167 124.557 47.8467 124.31 48.14C124.07 48.4333 123.767 48.6633 123.4 48.83C123.034 48.9967 122.624 49.08 122.17 49.08C121.624 49.08 121.137 48.9633 120.71 48.73C120.284 48.4967 119.95 48.1633 119.71 47.73C119.47 47.2967 119.35 46.79 119.35 46.21C119.35 45.63 119.467 45.1233 119.7 44.69C119.94 44.2567 120.274 43.9233 120.7 43.69C121.127 43.4567 121.617 43.34 122.17 43.34C122.71 43.34 123.19 43.4533 123.61 43.68C124.03 43.9067 124.357 44.23 124.59 44.65C124.83 45.07 124.95 45.56 124.95 46.12ZM123.2 45.67C123.2 45.3767 123.1 45.1433 122.9 44.97C122.7 44.7967 122.45 44.71 122.15 44.71C121.864 44.71 121.62 44.7933 121.42 44.96C121.227 45.1267 121.107 45.3633 121.06 45.67H123.2ZM126.712 42.84C126.412 42.84 126.166 42.7533 125.972 42.58C125.786 42.4 125.692 42.18 125.692 41.92C125.692 41.6533 125.786 41.4333 125.972 41.26C126.166 41.08 126.412 40.99 126.712 40.99C127.006 40.99 127.246 41.08 127.432 41.26C127.626 41.4333 127.722 41.6533 127.722 41.92C127.722 42.18 127.626 42.4 127.432 42.58C127.246 42.7533 127.006 42.84 126.712 42.84ZM127.562 43.42V49H125.852V43.42H127.562ZM131.072 49.08C130.585 49.08 130.152 48.9967 129.772 48.83C129.392 48.6633 129.092 48.4367 128.872 48.15C128.652 47.8567 128.528 47.53 128.502 47.17H130.192C130.212 47.3633 130.302 47.52 130.462 47.64C130.622 47.76 130.818 47.82 131.052 47.82C131.265 47.82 131.428 47.78 131.542 47.7C131.662 47.6133 131.722 47.5033 131.722 47.37C131.722 47.21 131.638 47.0933 131.472 47.02C131.305 46.94 131.035 46.8533 130.662 46.76C130.262 46.6667 129.928 46.57 129.662 46.47C129.395 46.3633 129.165 46.2 128.972 45.98C128.778 45.7533 128.682 45.45 128.682 45.07C128.682 44.75 128.768 44.46 128.942 44.2C129.122 43.9333 129.382 43.7233 129.722 43.57C130.068 43.4167 130.478 43.34 130.952 43.34C131.652 43.34 132.202 43.5133 132.602 43.86C133.008 44.2067 133.242 44.6667 133.302 45.24H131.722C131.695 45.0467 131.608 44.8933 131.462 44.78C131.322 44.6667 131.135 44.61 130.902 44.61C130.702 44.61 130.548 44.65 130.442 44.73C130.335 44.8033 130.282 44.9067 130.282 45.04C130.282 45.2 130.365 45.32 130.532 45.4C130.705 45.48 130.972 45.56 131.332 45.64C131.745 45.7467 132.082 45.8533 132.342 45.96C132.602 46.06 132.828 46.2267 133.022 46.46C133.222 46.6867 133.325 46.9933 133.332 47.38C133.332 47.7067 133.238 48 133.052 48.26C132.872 48.5133 132.608 48.7133 132.262 48.86C131.922 49.0067 131.525 49.08 131.072 49.08ZM139.888 43.42V49H138.178V48.24C138.004 48.4867 137.768 48.6867 137.468 48.84C137.174 48.9867 136.848 49.06 136.488 49.06C136.061 49.06 135.684 48.9667 135.358 48.78C135.031 48.5867 134.778 48.31 134.598 47.95C134.418 47.59 134.328 47.1667 134.328 46.68V43.42H136.028V46.45C136.028 46.8233 136.124 47.1133 136.318 47.32C136.511 47.5267 136.771 47.63 137.098 47.63C137.431 47.63 137.694 47.5267 137.888 47.32C138.081 47.1133 138.178 46.8233 138.178 46.45V43.42H139.888ZM146.376 46.12C146.376 46.28 146.366 46.4467 146.346 46.62H142.476C142.503 46.9667 142.613 47.2333 142.806 47.42C143.006 47.6 143.249 47.69 143.536 47.69C143.963 47.69 144.259 47.51 144.426 47.15H146.246C146.153 47.5167 145.983 47.8467 145.736 48.14C145.496 48.4333 145.193 48.6633 144.826 48.83C144.459 48.9967 144.049 49.08 143.596 49.08C143.049 49.08 142.563 48.9633 142.136 48.73C141.709 48.4967 141.376 48.1633 141.136 47.73C140.896 47.2967 140.776 46.79 140.776 46.21C140.776 45.63 140.893 45.1233 141.126 44.69C141.366 44.2567 141.699 43.9233 142.126 43.69C142.553 43.4567 143.043 43.34 143.596 43.34C144.136 43.34 144.616 43.4533 145.036 43.68C145.456 43.9067 145.783 44.23 146.016 44.65C146.256 45.07 146.376 45.56 146.376 46.12ZM144.626 45.67C144.626 45.3767 144.526 45.1433 144.326 44.97C144.126 44.7967 143.876 44.71 143.576 44.71C143.289 44.71 143.046 44.7933 142.846 44.96C142.653 45.1267 142.533 45.3633 142.486 45.67H144.626ZM148.988 44.35C149.188 44.0433 149.438 43.8033 149.738 43.63C150.038 43.45 150.372 43.36 150.738 43.36V45.17H150.268C149.842 45.17 149.522 45.2633 149.308 45.45C149.095 45.63 148.988 45.95 148.988 46.41V49H147.278V43.42H148.988V44.35ZM156.785 47.55V49H155.915C155.295 49 154.811 48.85 154.465 48.55C154.118 48.2433 153.945 47.7467 153.945 47.06V44.84H153.265V43.42H153.945V42.06H155.655V43.42H156.775V44.84H155.655V47.08C155.655 47.2467 155.695 47.3667 155.775 47.44C155.855 47.5133 155.988 47.55 156.175 47.55H156.785ZM159.447 44.35C159.647 44.0433 159.897 43.8033 160.197 43.63C160.497 43.45 160.831 43.36 161.197 43.36V45.17H160.727C160.301 45.17 159.981 45.2633 159.767 45.45C159.554 45.63 159.447 45.95 159.447 46.41V49H157.737V43.42H159.447V44.35ZM161.675 46.2C161.675 45.6267 161.781 45.1233 161.995 44.69C162.215 44.2567 162.511 43.9233 162.885 43.69C163.258 43.4567 163.675 43.34 164.135 43.34C164.528 43.34 164.871 43.42 165.165 43.58C165.465 43.74 165.695 43.95 165.855 44.21V43.42H167.565V49H165.855V48.21C165.688 48.47 165.455 48.68 165.155 48.84C164.861 49 164.518 49.08 164.125 49.08C163.671 49.08 163.258 48.9633 162.885 48.73C162.511 48.49 162.215 48.1533 161.995 47.72C161.781 47.28 161.675 46.7733 161.675 46.2ZM165.855 46.21C165.855 45.7833 165.735 45.4467 165.495 45.2C165.261 44.9533 164.975 44.83 164.635 44.83C164.295 44.83 164.005 44.9533 163.765 45.2C163.531 45.44 163.415 45.7733 163.415 46.2C163.415 46.6267 163.531 46.9667 163.765 47.22C164.005 47.4667 164.295 47.59 164.635 47.59C164.975 47.59 165.261 47.4667 165.495 47.22C165.735 46.9733 165.855 46.6367 165.855 46.21ZM171.312 47.4L172.522 43.42H174.342L172.362 49H170.252L168.272 43.42H170.102L171.312 47.4ZM180.321 46.12C180.321 46.28 180.311 46.4467 180.291 46.62H176.421C176.448 46.9667 176.558 47.2333 176.751 47.42C176.951 47.6 177.195 47.69 177.481 47.69C177.908 47.69 178.205 47.51 178.371 47.15H180.191C180.098 47.5167 179.928 47.8467 179.681 48.14C179.441 48.4333 179.138 48.6633 178.771 48.83C178.405 48.9967 177.995 49.08 177.541 49.08C176.995 49.08 176.508 48.9633 176.081 48.73C175.655 48.4967 175.321 48.1633 175.081 47.73C174.841 47.2967 174.721 46.79 174.721 46.21C174.721 45.63 174.838 45.1233 175.071 44.69C175.311 44.2567 175.645 43.9233 176.071 43.69C176.498 43.4567 176.988 43.34 177.541 43.34C178.081 43.34 178.561 43.4533 178.981 43.68C179.401 43.9067 179.728 44.23 179.961 44.65C180.201 45.07 180.321 45.56 180.321 46.12ZM178.571 45.67C178.571 45.3767 178.471 45.1433 178.271 44.97C178.071 44.7967 177.821 44.71 177.521 44.71C177.235 44.71 176.991 44.7933 176.791 44.96C176.598 45.1267 176.478 45.3633 176.431 45.67H178.571ZM182.934 41.6V49H181.224V41.6H182.934ZM185.883 41.6V49H184.173V41.6H185.883ZM192.382 46.12C192.382 46.28 192.372 46.4467 192.352 46.62H188.482C188.509 46.9667 188.619 47.2333 188.812 47.42C189.012 47.6 189.255 47.69 189.542 47.69C189.969 47.69 190.265 47.51 190.432 47.15H192.252C192.159 47.5167 191.989 47.8467 191.742 48.14C191.502 48.4333 191.199 48.6633 190.832 48.83C190.465 48.9967 190.055 49.08 189.602 49.08C189.055 49.08 188.569 48.9633 188.142 48.73C187.715 48.4967 187.382 48.1633 187.142 47.73C186.902 47.2967 186.782 46.79 186.782 46.21C186.782 45.63 186.899 45.1233 187.132 44.69C187.372 44.2567 187.705 43.9233 188.132 43.69C188.559 43.4567 189.049 43.34 189.602 43.34C190.142 43.34 190.622 43.4533 191.042 43.68C191.462 43.9067 191.789 44.23 192.022 44.65C192.262 45.07 192.382 45.56 192.382 46.12ZM190.632 45.67C190.632 45.3767 190.532 45.1433 190.332 44.97C190.132 44.7967 189.882 44.71 189.582 44.71C189.295 44.71 189.052 44.7933 188.852 44.96C188.659 45.1267 188.539 45.3633 188.492 45.67H190.632ZM194.994 44.35C195.194 44.0433 195.444 43.8033 195.744 43.63C196.044 43.45 196.377 43.36 196.744 43.36V45.17H196.274C195.847 45.17 195.527 45.2633 195.314 45.45C195.101 45.63 194.994 45.95 194.994 46.41V49H193.284V43.42H194.994V44.35ZM199.831 49.08C199.345 49.08 198.911 48.9967 198.531 48.83C198.151 48.6633 197.851 48.4367 197.631 48.15C197.411 47.8567 197.288 47.53 197.261 47.17H198.951C198.971 47.3633 199.061 47.52 199.221 47.64C199.381 47.76 199.578 47.82 199.811 47.82C200.025 47.82 200.188 47.78 200.301 47.7C200.421 47.6133 200.481 47.5033 200.481 47.37C200.481 47.21 200.398 47.0933 200.231 47.02C200.065 46.94 199.795 46.8533 199.421 46.76C199.021 46.6667 198.688 46.57 198.421 46.47C198.155 46.3633 197.925 46.2 197.731 45.98C197.538 45.7533 197.441 45.45 197.441 45.07C197.441 44.75 197.528 44.46 197.701 44.2C197.881 43.9333 198.141 43.7233 198.481 43.57C198.828 43.4167 199.238 43.34 199.711 43.34C200.411 43.34 200.961 43.5133 201.361 43.86C201.768 44.2067 202.001 44.6667 202.061 45.24H200.481C200.455 45.0467 200.368 44.8933 200.221 44.78C200.081 44.6667 199.895 44.61 199.661 44.61C199.461 44.61 199.308 44.65 199.201 44.73C199.095 44.8033 199.041 44.9067 199.041 45.04C199.041 45.2 199.125 45.32 199.291 45.4C199.465 45.48 199.731 45.56 200.091 45.64C200.505 45.7467 200.841 45.8533 201.101 45.96C201.361 46.06 201.588 46.2267 201.781 46.46C201.981 46.6867 202.085 46.9933 202.091 47.38C202.091 47.7067 201.998 48 201.811 48.26C201.631 48.5133 201.368 48.7133 201.021 48.86C200.681 49.0067 200.285 49.08 199.831 49.08Z" fill="#222222"/>
</g>
<defs>
<clipPath id="clip0_1_2">
<rect width="211" height="60" fill="white"/>
</clipPath>
</defs>
</svg>
